_________________________  Visit us at _________________________
  
http://p2pdl.com  ____________________________  http://p2pdl.com

 
http://www.shotpix.com/images/14834381319466207909.jpg

The Hobbit An Unexpected Journey 2012 BRRip 720p x264 AAC - PRiSTiNE

Genre: Adventure | Fantasy
Plot: A younger and more reluctant Hobbit, Bilbo Baggins, sets out on an "unexpected journey" to the Lonely Mountain with a spirited group of Dwarves to reclaim their stolen mountain home from a dragon named Smaug.
Director: Peter Jackson
Stars: Martin Freeman, Ian McKellen, Richard Armitage
Rated: Rated PG-13 for extended sequences of intense fantasy action violence, and frightening images.

Info: 
http://www.imdb.com/title/tt0903624/

General
Complete name                  : The Hobbit An Unexpected Journey 2012 BRRip 720p x264 AAC - PRiSTiNE.mp4
Format                         : MPEG-4
Format profile                 : Base Media
Codec ID                       : isom
File size                      : 880 MiB
Duration                       : 2h 49mn
Overall bit rate mode          : Variable
Overall bit rate               : 726 Kbps

Source                         : 720p BluRay Sparks (Thanks)

Video
Format                         : AVC
Format profile                 : High 10@L4.1
Bit rate                       : 649 Kbps
Maximum bit rate               : 3 076 Kbps
Width                          : 1 280 pixels
Height                         : 536 pixels
Display aspect ratio           : 2.40:1
Frame rate mode                : Constant
Frame rate                     : 23.976 fps
Color space                    : YUV
Chroma subsampling             : 4:2:0
Bit depth                      : 10 bits
Scan type                      : Progressive
Bits/(Pixel*Frame)             : 0.039
Stream size                    : 787 MiB (89%)
Writing library                : x264 core 129 r2245 bc13772

Audio
Duration                       : 2h 49mn
Bit rate mode                  : Variable
Bit rate                       : 73.9 Kbps
Channel(s)                     : 2 channels
Channel positions              : Front: L R
Sampling rate                  : 48.0 KHz / 24.0 KHz
Compression mode               : Lossy
Stream size                    : 89.7 MiB (10%)
Language                       : English

Subtitle                       : Yes ( English)


Screens: 
http://www.shotpix.com/images/54232253422150967761.jpg 
http://www.shotpix.com/images/11955671957999390633.jpg 
http://www.shotpix.com/images/78406628117492887844.jpg 
http://www.shotpix.com/images/40943279278852561000.jpg

Thumbs: 
http://www.shotpix.com/images/02235643997423950806.jpg
----------------------------------------------------------------------------------------------------


Recommend to you to use latest version of VLC player. Install K-Lite Codec Pack or shark007 codecs
in case of any kind of problem in playback (For non-VLC Media Player users). Alternatively, install
Core AVC codecs, the fastest decoder that there is coupled with Community Center Codec Pack and play
on Windows Media Player Classic. Check sample to be sure.
Enjoy!

Greets to: VYTO, a2zRG, MusiK_KinG, Kuroyukihime, TorDigger, Ash968, StyLishSaLH, Masta and staff members at
ExtraTorrent, TPB, H33T, KAT, 1337x, PublicHD, Ahashare, BTScene, SilverTorrent, LimeTorrents, TorrentMafia,
P2PDL, and all others.

Encoder Notes: Looking For Early Access To Anything You Can Provide DVDScr, R5, DVDR, BluRay, Direct
Audio, Early Music Releases, Seedboxes, Dedicated Servers anything u can provide, Advance / Promo CDs/
DVDs. If You Got anything to offer contact me at "prg@hush.com".
Fan Page: